<svg width="3543" height="60" viewBox="0 0 3543 60" fill="none" xmlns="http://www.w3.org/2000/svg">
<path d="M30 0L55.9808 45H4.01924L30 0Z" fill="#F6F6F6"/>
<rect x="4" y="45" width="52" height="10" fill="#F6F6F6"/>
<path d="M82 0L107.981 45H56.0192L82 0Z" fill="#F6F6F6"/>
<rect x="56" y="45" width="52" height="10" fill="#F6F6F6"/>
<path d="M134 0L159.981 45H108.019L134 0Z" fill="#F6F6F6"/>
<rect x="108" y="45" width="52" height="10" fill="#F6F6F6"/>
<path d="M186 0L211.981 45H160.019L186 0Z" fill="#F6F6F6"/>
<rect x="160" y="45" width="52" height="10" fill="#F6F6F6"/>
<path d="M238 0L263.981 45H212.019L238 0Z" fill="#F6F6F6"/>
<rect x="212" y="45" width="52" height="10" fill="#F6F6F6"/>
<path d="M290 0L315.981 45H264.019L290 0Z" fill="#F6F6F6"/>
<rect x="264" y="45" width="52" height="10" fill="#F6F6F6"/>
<path d="M342 0L367.981 45H316.019L342 0Z" fill="#F6F6F6"/>
<rect x="316" y="45" width="52" height="10" fill="#F6F6F6"/>
<path d="M394 0L419.981 45H368.019L394 0Z" fill="#F6F6F6"/>
<rect x="368" y="45" width="52" height="10" fill="#F6F6F6"/>
<path d="M446 0L471.981 45H420.019L446 0Z" fill="#F6F6F6"/>
<rect x="420" y="45" width="52" height="10" fill="#F6F6F6"/>
<path d="M498 0L523.981 45H472.019L498 0Z" fill="#F6F6F6"/>
<rect x="472" y="45" width="52" height="10" fill="#F6F6F6"/>
<path d="M550 0L575.981 45H524.019L550 0Z" fill="#F6F6F6"/>
<rect x="524" y="45" width="52" height="10" fill="#F6F6F6"/>
<path d="M602 0L627.981 45H576.019L602 0Z" fill="#F6F6F6"/>
<rect x="576" y="45" width="52" height="10" fill="#F6F6F6"/>
<path d="M654 0L679.981 45H628.019L654 0Z" fill="#F6F6F6"/>
<rect x="628" y="45" width="52" height="10" fill="#F6F6F6"/>
<path d="M706 0L731.981 45H680.019L706 0Z" fill="#F6F6F6"/>
<rect x="680" y="45" width="52" height="10" fill="#F6F6F6"/>
<path d="M758 0L783.981 45H732.019L758 0Z" fill="#F6F6F6"/>
<rect x="732" y="45" width="52" height="10" fill="#F6F6F6"/>
<path d="M810 0L835.981 45H784.019L810 0Z" fill="#F6F6F6"/>
<rect x="784" y="45" width="52" height="10" fill="#F6F6F6"/>
<path d="M862 0L887.981 45H836.019L862 0Z" fill="#F6F6F6"/>
<rect x="836" y="45" width="52" height="10" fill="#F6F6F6"/>
<path d="M914 0L939.981 45H888.019L914 0Z" fill="#F6F6F6"/>
<rect x="888" y="45" width="52" height="10" fill="#F6F6F6"/>
<path d="M966 0L991.981 45H940.019L966 0Z" fill="#F6F6F6"/>
<rect x="940" y="45" width="52" height="10" fill="#F6F6F6"/>
<path d="M1018 0L1043.98 45H992.019L1018 0Z" fill="#F6F6F6"/>
<rect x="992" y="45" width="52" height="10" fill="#F6F6F6"/>
<path d="M1070 0L1095.98 45H1044.02L1070 0Z" fill="#F6F6F6"/>
<rect x="1044" y="45" width="52" height="10" fill="#F6F6F6"/>
<path d="M1122 0L1147.98 45H1096.02L1122 0Z" fill="#F6F6F6"/>
<rect x="1096" y="45" width="52" height="10" fill="#F6F6F6"/>
<path d="M1174 0L1199.98 45H1148.02L1174 0Z" fill="#F6F6F6"/>
<rect x="1148" y="45" width="52" height="10" fill="#F6F6F6"/>
<path d="M1226 0L1251.98 45H1200.02L1226 0Z" fill="#F6F6F6"/>
<rect x="1200" y="45" width="52" height="10" fill="#F6F6F6"/>
<path d="M1278 0L1303.98 45H1252.02L1278 0Z" fill="#F6F6F6"/>
<rect x="1252" y="45" width="52" height="10" fill="#F6F6F6"/>
<path d="M1330 0L1355.98 45H1304.02L1330 0Z" fill="#F6F6F6"/>
<rect x="1304" y="45" width="52" height="10" fill="#F6F6F6"/>
<path d="M1382 0L1407.98 45H1356.02L1382 0Z" fill="#F6F6F6"/>
<rect x="1356" y="45" width="52" height="10" fill="#F6F6F6"/>
<path d="M1434 0L1459.98 45H1408.02L1434 0Z" fill="#F6F6F6"/>
<rect x="1408" y="45" width="52" height="10" fill="#F6F6F6"/>
<path d="M1486 0L1511.98 45H1460.02L1486 0Z" fill="#F6F6F6"/>
<rect x="1460" y="45" width="52" height="10" fill="#F6F6F6"/>
<path d="M1538 0L1563.98 45H1512.02L1538 0Z" fill="#F6F6F6"/>
<rect x="1512" y="45" width="52" height="10" fill="#F6F6F6"/>
<path d="M1590 0L1615.98 45H1564.02L1590 0Z" fill="#F6F6F6"/>
<rect x="1564" y="45" width="52" height="10" fill="#F6F6F6"/>
<path d="M1642 0L1667.98 45H1616.02L1642 0Z" fill="#F6F6F6"/>
<rect x="1616" y="45" width="52" height="10" fill="#F6F6F6"/>
<path d="M1694 0L1719.98 45H1668.02L1694 0Z" fill="#F6F6F6"/>
<rect x="1668" y="45" width="52" height="10" fill="#F6F6F6"/>
<path d="M1746 0L1771.98 45H1720.02L1746 0Z" fill="#F6F6F6"/>
<rect x="1720" y="45" width="52" height="10" fill="#F6F6F6"/>
<path d="M1797 0L1822.98 45H1771.02L1797 0Z" fill="#F6F6F6"/>
<rect x="1771" y="45" width="52" height="10" fill="#F6F6F6"/>
<path d="M1849 0L1874.98 45H1823.02L1849 0Z" fill="#F6F6F6"/>
<rect x="1823" y="45" width="52" height="10" fill="#F6F6F6"/>
<path d="M1901 0L1926.98 45H1875.02L1901 0Z" fill="#F6F6F6"/>
<rect x="1875" y="45" width="52" height="10" fill="#F6F6F6"/>
<path d="M1953 0L1978.98 45H1927.02L1953 0Z" fill="#F6F6F6"/>
<rect x="1927" y="45" width="52" height="10" fill="#F6F6F6"/>
<path d="M2005 0L2030.98 45H1979.02L2005 0Z" fill="#F6F6F6"/>
<rect x="1979" y="45" width="52" height="10" fill="#F6F6F6"/>
<path d="M2057 0L2082.98 45H2031.02L2057 0Z" fill="#F6F6F6"/>
<rect x="2031" y="45" width="52" height="10" fill="#F6F6F6"/>
<path d="M2109 0L2134.98 45H2083.02L2109 0Z" fill="#F6F6F6"/>
<rect x="2083" y="45" width="52" height="10" fill="#F6F6F6"/>
<path d="M2161 0L2186.98 45H2135.02L2161 0Z" fill="#F6F6F6"/>
<rect x="2135" y="45" width="52" height="10" fill="#F6F6F6"/>
<path d="M2213 0L2238.98 45H2187.02L2213 0Z" fill="#F6F6F6"/>
<rect x="2187" y="45" width="52" height="10" fill="#F6F6F6"/>
<path d="M2265 0L2290.98 45H2239.02L2265 0Z" fill="#F6F6F6"/>
<rect x="2239" y="45" width="52" height="10" fill="#F6F6F6"/>
<path d="M2317 0L2342.98 45H2291.02L2317 0Z" fill="#F6F6F6"/>
<rect x="2291" y="45" width="52" height="10" fill="#F6F6F6"/>
<path d="M2369 0L2394.98 45H2343.02L2369 0Z" fill="#F6F6F6"/>
<rect x="2343" y="45" width="52" height="10" fill="#F6F6F6"/>
<path d="M2421 0L2446.98 45H2395.02L2421 0Z" fill="#F6F6F6"/>
<rect x="2395" y="45" width="52" height="10" fill="#F6F6F6"/>
<path d="M2473 0L2498.98 45H2447.02L2473 0Z" fill="#F6F6F6"/>
<rect x="2447" y="45" width="52" height="10" fill="#F6F6F6"/>
<path d="M2525 0L2550.98 45H2499.02L2525 0Z" fill="#F6F6F6"/>
<rect x="2499" y="45" width="52" height="10" fill="#F6F6F6"/>
<path d="M2577 0L2602.98 45H2551.02L2577 0Z" fill="#F6F6F6"/>
<rect x="2551" y="45" width="52" height="10" fill="#F6F6F6"/>
<path d="M2629 0L2654.98 45H2603.02L2629 0Z" fill="#F6F6F6"/>
<rect x="2603" y="45" width="52" height="10" fill="#F6F6F6"/>
<path d="M2681 0L2706.98 45H2655.02L2681 0Z" fill="#F6F6F6"/>
<rect x="2655" y="45" width="52" height="10" fill="#F6F6F6"/>
<path d="M2733 0L2758.98 45H2707.02L2733 0Z" fill="#F6F6F6"/>
<rect x="2707" y="45" width="52" height="10" fill="#F6F6F6"/>
<path d="M2785 0L2810.98 45H2759.02L2785 0Z" fill="#F6F6F6"/>
<rect x="2759" y="45" width="52" height="10" fill="#F6F6F6"/>
<path d="M2837 0L2862.98 45H2811.02L2837 0Z" fill="#F6F6F6"/>
<rect x="2811" y="45" width="52" height="10" fill="#F6F6F6"/>
<path d="M2889 0L2914.98 45H2863.02L2889 0Z" fill="#F6F6F6"/>
<rect x="2863" y="45" width="52" height="10" fill="#F6F6F6"/>
<path d="M2941 0L2966.98 45H2915.02L2941 0Z" fill="#F6F6F6"/>
<rect x="2915" y="45" width="52" height="10" fill="#F6F6F6"/>
<path d="M2993 0L3018.98 45H2967.02L2993 0Z" fill="#F6F6F6"/>
<rect x="2967" y="45" width="52" height="10" fill="#F6F6F6"/>
<path d="M3045 0L3070.98 45H3019.02L3045 0Z" fill="#F6F6F6"/>
<rect x="3019" y="45" width="52" height="10" fill="#F6F6F6"/>
<path d="M3097 0L3122.98 45H3071.02L3097 0Z" fill="#F6F6F6"/>
<rect x="3071" y="45" width="52" height="10" fill="#F6F6F6"/>
<path d="M3149 0L3174.98 45H3123.02L3149 0Z" fill="#F6F6F6"/>
<rect x="3123" y="45" width="52" height="10" fill="#F6F6F6"/>
<path d="M3201 0L3226.98 45H3175.02L3201 0Z" fill="#F6F6F6"/>
<rect x="3175" y="45" width="52" height="10" fill="#F6F6F6"/>
<path d="M3253 0L3278.98 45H3227.02L3253 0Z" fill="#F6F6F6"/>
<rect x="3227" y="45" width="52" height="10" fill="#F6F6F6"/>
<path d="M3305 0L3330.98 45H3279.02L3305 0Z" fill="#F6F6F6"/>
<rect x="3279" y="45" width="52" height="10" fill="#F6F6F6"/>
<path d="M3357 0L3382.98 45H3331.02L3357 0Z" fill="#F6F6F6"/>
<rect x="3331" y="45" width="52" height="10" fill="#F6F6F6"/>
<path d="M3409 0L3434.98 45H3383.02L3409 0Z" fill="#F6F6F6"/>
<rect x="3383" y="45" width="52" height="10" fill="#F6F6F6"/>
<path d="M3461 0L3486.98 45H3435.02L3461 0Z" fill="#F6F6F6"/>
<rect x="3435" y="45" width="52" height="10" fill="#F6F6F6"/>
<path d="M3513 0L3538.98 45H3487.02L3513 0Z" fill="#F6F6F6"/>
<rect x="3487" y="45" width="52" height="10" fill="#F6F6F6"/>
</svg>
